<?xml version="1.0"?>
<svg xmlns="http://www.w3.org/2000/svg" id="Capa_1" enable-background="new 0 0 512 512" height="512px" viewBox="0 0 512 512" width="512px"><g><path d="m377.5 432.853c8.161 0 16.153-.65 23.914-1.892 18.379 16.853 46.067 26.059 73.343 26.059 3.7 0 7.388-.169 11.048-.511 8.456-.791 12.083-11.205 5.979-17.111-9.126-8.831-19.742-21.737-24.447-37.245 27.415-21.969 44.663-53.836 44.663-89.3 0-66.274-60.218-120-134.5-120-4.557 0-9.06.205-13.5.6v71.477c0 31.325-25.485 56.81-56.81 56.81h-63.822c5.098 62.124 63.2 111.113 134.132 111.113z" data-original="#000000" class="active-path" data-old_color="#000000" fill="#EC4683"/><path d="m307.19 291.74c14.807 0 26.81-12.003 26.81-26.81v-183.14c0-14.807-12.003-26.81-26.81-26.81h-280.38c-14.807 0-26.81 12.004-26.81 26.81v183.14c0 14.807 12.003 26.81 26.81 26.81h51.047v62.791c0 5.939 4.872 10.019 10.046 10.019 2.099 0 4.246-.671 6.139-2.161l89.764-70.649z" data-original="#000000" class="active-path" data-old_color="#000000" fill="#EC4683"/></g> </svg>
